<mxfile host="app.diagrams.net" modified="2023-08-09T08:10:20.233Z" agent="Mozilla/5.0 (Macintosh; Intel Mac OS X 10_15_7) AppleWebKit/537.36 (KHTML, like Gecko) Chrome/115.0.0.0 Safari/537.36" etag="qxbTWNxlolDJC5zvdvzN" version="21.6.6" type="github">
  <diagram name="第 1 页" id="HdafNH0HoxGkNgHMaCGU">
    <mxGraphModel dx="1468" dy="778" grid="1" gridSize="10" guides="1" tooltips="1" connect="1" arrows="1" fold="1" page="1" pageScale="1" pageWidth="827" pageHeight="1169" math="0" shadow="0">
      <root>
        <mxCell id="0" />
        <mxCell id="1" parent="0" />
        <mxCell id="S4SMHpq0_AO4ld81AgC7-11" style="edgeStyle=orthogonalEdgeStyle;rounded=0;orthogonalLoop=1;jettySize=auto;html=1;entryX=0.5;entryY=0;entryDx=0;entryDy=0;" edge="1" parent="1" source="S4SMHpq0_AO4ld81AgC7-1" target="S4SMHpq0_AO4ld81AgC7-2">
          <mxGeometry relative="1" as="geometry" />
        </mxCell>
        <mxCell id="S4SMHpq0_AO4ld81AgC7-1" value="&lt;font style=&quot;font-size: 16px;&quot;&gt;开始&lt;/font&gt;" style="rounded=1;whiteSpace=wrap;html=1;" vertex="1" parent="1">
          <mxGeometry x="354" y="120" width="120" height="60" as="geometry" />
        </mxCell>
        <mxCell id="S4SMHpq0_AO4ld81AgC7-12" style="edgeStyle=orthogonalEdgeStyle;rounded=0;orthogonalLoop=1;jettySize=auto;html=1;entryX=0.5;entryY=0;entryDx=0;entryDy=0;" edge="1" parent="1" source="S4SMHpq0_AO4ld81AgC7-2" target="S4SMHpq0_AO4ld81AgC7-3">
          <mxGeometry relative="1" as="geometry" />
        </mxCell>
        <mxCell id="S4SMHpq0_AO4ld81AgC7-2" value="&lt;font style=&quot;font-size: 16px;&quot;&gt;拉取kafka消息&lt;/font&gt;" style="rounded=0;whiteSpace=wrap;html=1;" vertex="1" parent="1">
          <mxGeometry x="354" y="220" width="120" height="60" as="geometry" />
        </mxCell>
        <mxCell id="S4SMHpq0_AO4ld81AgC7-13" style="edgeStyle=orthogonalEdgeStyle;rounded=0;orthogonalLoop=1;jettySize=auto;html=1;entryX=0.5;entryY=0;entryDx=0;entryDy=0;" edge="1" parent="1" source="S4SMHpq0_AO4ld81AgC7-3" target="S4SMHpq0_AO4ld81AgC7-5">
          <mxGeometry relative="1" as="geometry" />
        </mxCell>
        <mxCell id="S4SMHpq0_AO4ld81AgC7-3" value="&lt;font style=&quot;font-size: 16px;&quot;&gt;消息解析&lt;/font&gt;" style="rounded=0;whiteSpace=wrap;html=1;" vertex="1" parent="1">
          <mxGeometry x="354" y="320" width="120" height="60" as="geometry" />
        </mxCell>
        <mxCell id="S4SMHpq0_AO4ld81AgC7-14" style="edgeStyle=orthogonalEdgeStyle;rounded=0;orthogonalLoop=1;jettySize=auto;html=1;entryX=0.5;entryY=0;entryDx=0;entryDy=0;" edge="1" parent="1" source="S4SMHpq0_AO4ld81AgC7-5" target="S4SMHpq0_AO4ld81AgC7-6">
          <mxGeometry relative="1" as="geometry" />
        </mxCell>
        <mxCell id="S4SMHpq0_AO4ld81AgC7-22" style="edgeStyle=orthogonalEdgeStyle;rounded=0;orthogonalLoop=1;jettySize=auto;html=1;entryX=0;entryY=0.5;entryDx=0;entryDy=0;exitX=0;exitY=0.5;exitDx=0;exitDy=0;" edge="1" parent="1" source="S4SMHpq0_AO4ld81AgC7-5" target="S4SMHpq0_AO4ld81AgC7-9">
          <mxGeometry relative="1" as="geometry">
            <Array as="points">
              <mxPoint x="300" y="450" />
              <mxPoint x="300" y="850" />
            </Array>
          </mxGeometry>
        </mxCell>
        <mxCell id="S4SMHpq0_AO4ld81AgC7-5" value="&lt;font style=&quot;font-size: 16px;&quot;&gt;是否是panic&lt;/font&gt;" style="rhombus;whiteSpace=wrap;html=1;" vertex="1" parent="1">
          <mxGeometry x="360" y="410" width="110" height="80" as="geometry" />
        </mxCell>
        <mxCell id="S4SMHpq0_AO4ld81AgC7-16" style="edgeStyle=orthogonalEdgeStyle;rounded=0;orthogonalLoop=1;jettySize=auto;html=1;entryX=0.5;entryY=0;entryDx=0;entryDy=0;" edge="1" parent="1" source="S4SMHpq0_AO4ld81AgC7-6" target="S4SMHpq0_AO4ld81AgC7-7">
          <mxGeometry relative="1" as="geometry" />
        </mxCell>
        <mxCell id="S4SMHpq0_AO4ld81AgC7-6" value="&lt;font style=&quot;font-size: 16px;&quot;&gt;加入到聚合器&lt;/font&gt;" style="rounded=0;whiteSpace=wrap;html=1;" vertex="1" parent="1">
          <mxGeometry x="355" y="524.5" width="120" height="60" as="geometry" />
        </mxCell>
        <mxCell id="S4SMHpq0_AO4ld81AgC7-17" style="edgeStyle=orthogonalEdgeStyle;rounded=0;orthogonalLoop=1;jettySize=auto;html=1;entryX=0.5;entryY=0;entryDx=0;entryDy=0;" edge="1" parent="1" source="S4SMHpq0_AO4ld81AgC7-7" target="S4SMHpq0_AO4ld81AgC7-8">
          <mxGeometry relative="1" as="geometry" />
        </mxCell>
        <mxCell id="S4SMHpq0_AO4ld81AgC7-24" style="edgeStyle=orthogonalEdgeStyle;rounded=0;orthogonalLoop=1;jettySize=auto;html=1;entryX=1;entryY=0.5;entryDx=0;entryDy=0;exitX=1;exitY=0.5;exitDx=0;exitDy=0;" edge="1" parent="1" source="S4SMHpq0_AO4ld81AgC7-7" target="S4SMHpq0_AO4ld81AgC7-2">
          <mxGeometry relative="1" as="geometry">
            <Array as="points">
              <mxPoint x="530" y="650" />
              <mxPoint x="530" y="250" />
            </Array>
          </mxGeometry>
        </mxCell>
        <mxCell id="S4SMHpq0_AO4ld81AgC7-7" value="&lt;font style=&quot;font-size: 15px;&quot;&gt;定时器是否到期&lt;/font&gt;" style="rhombus;whiteSpace=wrap;html=1;" vertex="1" parent="1">
          <mxGeometry x="355" y="610" width="120" height="80" as="geometry" />
        </mxCell>
        <mxCell id="S4SMHpq0_AO4ld81AgC7-18" style="edgeStyle=orthogonalEdgeStyle;rounded=0;orthogonalLoop=1;jettySize=auto;html=1;entryX=0.5;entryY=0;entryDx=0;entryDy=0;" edge="1" parent="1" source="S4SMHpq0_AO4ld81AgC7-8" target="S4SMHpq0_AO4ld81AgC7-9">
          <mxGeometry relative="1" as="geometry" />
        </mxCell>
        <mxCell id="S4SMHpq0_AO4ld81AgC7-8" value="&lt;font style=&quot;font-size: 16px;&quot;&gt;构造飞书卡片&lt;/font&gt;" style="rounded=0;whiteSpace=wrap;html=1;" vertex="1" parent="1">
          <mxGeometry x="355" y="720" width="120" height="60" as="geometry" />
        </mxCell>
        <mxCell id="S4SMHpq0_AO4ld81AgC7-19" style="edgeStyle=orthogonalEdgeStyle;rounded=0;orthogonalLoop=1;jettySize=auto;html=1;entryX=0.5;entryY=0;entryDx=0;entryDy=0;" edge="1" parent="1" source="S4SMHpq0_AO4ld81AgC7-9" target="S4SMHpq0_AO4ld81AgC7-10">
          <mxGeometry relative="1" as="geometry" />
        </mxCell>
        <mxCell id="S4SMHpq0_AO4ld81AgC7-9" value="&lt;font style=&quot;font-size: 16px;&quot;&gt;发送告警&lt;/font&gt;" style="rounded=0;whiteSpace=wrap;html=1;" vertex="1" parent="1">
          <mxGeometry x="355" y="820" width="120" height="60" as="geometry" />
        </mxCell>
        <mxCell id="S4SMHpq0_AO4ld81AgC7-10" value="&lt;font style=&quot;font-size: 16px;&quot;&gt;结束&lt;/font&gt;" style="rounded=1;whiteSpace=wrap;html=1;" vertex="1" parent="1">
          <mxGeometry x="354" y="910" width="120" height="60" as="geometry" />
        </mxCell>
        <mxCell id="S4SMHpq0_AO4ld81AgC7-20" value="是" style="text;html=1;align=center;verticalAlign=middle;resizable=0;points=[];autosize=1;strokeColor=none;fillColor=none;" vertex="1" parent="1">
          <mxGeometry x="415" y="688" width="40" height="30" as="geometry" />
        </mxCell>
        <mxCell id="S4SMHpq0_AO4ld81AgC7-21" value="否" style="text;html=1;align=center;verticalAlign=middle;resizable=0;points=[];autosize=1;strokeColor=none;fillColor=none;" vertex="1" parent="1">
          <mxGeometry x="410" y="488" width="40" height="30" as="geometry" />
        </mxCell>
        <mxCell id="S4SMHpq0_AO4ld81AgC7-23" value="是" style="text;html=1;align=center;verticalAlign=middle;resizable=0;points=[];autosize=1;strokeColor=none;fillColor=none;" vertex="1" parent="1">
          <mxGeometry x="310" y="418" width="40" height="30" as="geometry" />
        </mxCell>
        <mxCell id="S4SMHpq0_AO4ld81AgC7-25" value="否" style="text;html=1;align=center;verticalAlign=middle;resizable=0;points=[];autosize=1;strokeColor=none;fillColor=none;" vertex="1" parent="1">
          <mxGeometry x="474" y="620" width="40" height="30" as="geometry" />
        </mxCell>
      </root>
    </mxGraphModel>
  </diagram>
</mxfile>
